<svg width="16" height="16" viewBox="0 0 16 16" fill="none" xmlns="http://www.w3.org/2000/svg">
<path fill-rule="evenodd" clip-rule="evenodd" d="M10.7409 11.5323C9.60102 12.4686 8.13597 13.0271 6.54121 13.0165C2.93629 12.9924 0.0332945 10.0688 0.0572361 6.48642C0.0811777 2.90405 3.02295 0.0195306 6.62791 0.0436232C10.2329 0.0677158 13.1358 2.9913 13.1119 6.57367C13.101 8.20646 12.484 9.69424 11.4743 10.8276L15.0048 14.3833L14.2789 15.0951L10.7409 11.5323ZM12.092 6.56696C12.0718 9.58952 9.58979 12.0234 6.54799 12.0031C3.50637 11.9827 1.05693 9.51594 1.07713 6.49334C1.09733 3.47075 3.57949 1.03691 6.62114 1.05724C9.6629 1.07756 12.1122 3.54437 12.092 6.56696Z" fill="#01234B"/>
</svg>
