<svg width="14" height="14" viewBox="0 0 14 14" fill="none" xmlns="http://www.w3.org/2000/svg">
<path fill-rule="evenodd" clip-rule="evenodd" d="M7.53271 0.0824495C7.35709 -0.0274832 7.12983 -0.0274832 6.95421 0.0824495C5.27763 1.13143 3.40686 1.73845 1.38646 2.00442C1.12621 2.03891 0.932617 2.2504 0.932617 2.49996C0.932617 6.95647 1.51265 9.403 2.91792 11.1124C3.86407 12.2634 5.19036 13.0898 7.0101 13.9479C7.15731 14.0174 7.32989 14.0174 7.47708 13.9479C9.29676 13.0898 10.6229 12.2634 11.5693 11.1124C12.9746 9.40295 13.5546 6.95647 13.5546 2.49996C13.5546 2.25041 13.361 2.03891 13.1007 2.00442C11.0802 1.73847 9.20958 1.13143 7.53298 0.0824495H7.53271ZM7.24346 1.09349C8.84797 2.04191 10.6105 2.63141 12.5011 2.92941C12.4689 6.78935 11.9966 8.96847 10.7403 10.4964C9.92245 11.4919 8.77755 12.2023 7.24346 12.9404C5.70939 12.2023 4.56447 11.4919 3.7466 10.4964C2.49027 8.96847 2.01801 6.78935 1.98585 2.92941C3.87655 2.63141 5.63898 2.04194 7.24346 1.09349Z" fill="#01234B"/>
<path fill-rule="evenodd" clip-rule="evenodd" d="M4.76814 7.85326L6.34587 9.35324C6.45892 9.46127 6.61775 9.51373 6.77706 9.49677C6.93647 9.47924 7.07839 9.39375 7.16362 9.26474L9.79317 5.26479C9.94731 5.03087 9.87206 4.7224 9.62589 4.57586C9.37984 4.42932 9.05538 4.50086 8.90124 4.7349L6.62198 8.20171L5.5117 7.14627C5.30662 6.95118 4.97323 6.95118 4.76816 7.14627C4.56296 7.34124 4.56296 7.6582 4.76816 7.85317L4.76814 7.85326Z" fill="#01234B"/>
</svg>
