<svg width="14" height="13" viewBox="0 0 14 13" fill="none" xmlns="http://www.w3.org/2000/svg">
<path fill-rule="evenodd" clip-rule="evenodd" d="M9.91828 9.22582C8.95911 9.97491 7.72632 10.4217 6.3844 10.4132C3.35098 10.3939 0.90822 8.05503 0.928366 5.18914C0.948512 2.32324 3.42391 0.0156245 6.45735 0.0348986C9.4908 0.0541726 11.9335 2.39304 11.9134 5.25893C11.9042 6.56516 11.3851 7.75539 10.5354 8.66207L13.5062 11.5067L12.8954 12.0761L9.91828 9.22582ZM11.0552 5.25357C11.0382 7.67161 8.94966 9.61872 6.3901 9.60245C3.83069 9.58619 1.76957 7.61275 1.78657 5.19468C1.80357 2.7766 3.89221 0.829526 6.45165 0.845788C9.01118 0.862051 11.0722 2.83549 11.0552 5.25357Z" fill="#01234B"/>
</svg>
